# xmcd
#
# Track frame offsets:
#	150
#	14417
#	25530
#	43057
#	55741
#	73995
#	93456
#	101094
#	112650
#
# Disc length: 1905 seconds
#
# Revision: 1
# Processed by: cddbd v1.5.2PL0 Copyright (c) Steve Scherf et al.
# Submitted via: audiograbber 1.83.01
#
DISCID=6e076f09
DTITLE=Sturgill Simpson - Metamodern Sounds In Country Music
DYEAR=2014
DGENRE=Country
TTITLE0=Turtles All The Way Down
TTITLE1=Life Of Sin
TTITLE2=Living The Dream
TTITLE3=Voices
TTITLE4=Long White Line
TTITLE5=The Promise
TTITLE6=A Little Light Within
TTITLE7=Just Let Go
TTITLE8=It Ain't All Flowers
EXTD=
EXTT0=
EXTT1=
EXTT2=
EXTT3=
EXTT4=
EXTT5=
EXTT6=
EXTT7=
EXTT8=
PLAYORDER=
